<svg width="60" height="32" viewBox="0 0 60 32" fill="none" xmlns="http://www.w3.org/2000/svg">
<path d="M23.3253 21.694C22.5122 27.1353 19.5309 30.552 15.601 30.6152C14.7201 30.9948 13.7715 31.2479 12.8229 31.2479C9.0285 31.2479 5.23409 28.2109 2.32053 22.9595C-1.6094 15.8731 0.626592 5.0538 0.69435 4.61091C0.762107 4.23128 1.23641 3.9782 1.64295 4.16801C1.91398 4.29455 5.84391 5.9396 9.84159 8.78678C11.2645 5.9396 13.0939 3.21895 14.8556 1.13101C14.9912 1.00447 15.1944 0.87793 15.3977 0.87793C15.601 0.87793 15.8042 1.00447 15.9398 1.13101C17.0916 2.4597 18.7178 4.73745 20.073 7.14174C24.6127 4.35783 30.101 3.21895 30.7786 3.09241H30.8464C30.9141 3.09241 31.6595 3.02914 31.6595 3.66185C31.6595 4.04147 31.5239 13.279 26.9842 18.4672C25.7646 19.7959 24.5449 20.8715 23.3253 21.694Z" fill="#E9D4C6"/>
<path d="M23.3253 21.694C22.5122 27.1353 19.5309 30.552 15.601 30.6152C14.7201 30.9948 13.7715 31.2479 12.8229 31.2479C9.0285 31.2479 5.23409 28.2109 2.32053 22.9595C-1.6094 15.8731 0.626592 5.0538 0.69435 4.61091C0.762107 4.23128 1.23641 3.9782 1.64295 4.16801C1.91398 4.29455 5.84391 5.9396 9.84159 8.78678C11.2645 5.9396 13.0939 3.21895 14.8556 1.13101C14.9912 1.00447 15.1944 0.87793 15.3977 0.87793C15.601 0.87793 15.8042 1.00447 15.9398 1.13101C17.0916 2.4597 18.7178 4.73745 20.073 7.14174C24.6127 4.35783 30.101 3.21895 30.7786 3.09241H30.8464C30.9141 3.09241 31.6595 3.02914 31.6595 3.66185C31.6595 4.04147 31.5239 13.279 26.9842 18.4672C25.7646 19.7959 24.5449 20.8715 23.3253 21.694ZM25.9001 17.6447C28.3393 14.8608 29.4235 10.6849 29.8978 7.64791C28.5426 10.3686 26.3744 14.1648 23.5286 17.2651C23.5963 18.0876 23.5963 19.0367 23.5286 19.9224C24.3417 19.2897 25.087 18.5305 25.9001 17.6447ZM23.3253 15.4935C26.2389 11.9503 28.4071 7.64791 29.4912 5.30689C27.594 6.50903 24.6805 8.5337 21.9702 11.0013C22.58 12.3932 23.0543 14.0383 23.3253 15.4935ZM17.9047 22.39C18.7178 16.5691 17.2949 9.35622 15.4655 3.66185V3.59858C13.1617 10.7482 10.7902 22.9595 15.4655 28.9702C15.4655 28.9069 17.2949 26.8822 17.9047 22.39ZM3.4724 22.39C6.04718 27.0721 9.29953 29.7927 12.4841 29.9825C10.5869 29.0335 9.29953 27.2619 8.48645 25.3005C8.28317 24.731 4.21773 20.3653 1.50744 8.72351C1.16865 12.5198 1.16865 18.2141 3.4724 22.39ZM8.14766 12.8994C5.97942 10.1787 3.81119 7.96426 2.38828 6.5723C3.06586 9.67258 4.55652 15.8731 7.40233 21.1246C6.99578 17.8978 7.26681 15.4935 8.14766 12.8994ZM4.75979 7.14174C5.91167 8.34389 7.26681 9.79912 8.62196 11.4442C8.82523 10.938 9.0285 10.4318 9.23178 9.98893C7.74111 8.78678 6.11494 7.83772 4.75979 7.14174ZM8.62196 18.0876C8.62196 22.2002 9.70608 27.8946 13.907 29.16C9.63832 22.9595 11.5355 12.0769 13.636 4.99053C11.1967 8.5337 8.62196 13.8485 8.62196 18.0876ZM16.9561 29.16C22.2412 27.6415 23.2575 18.4672 21.1571 12.583C20.2085 9.98893 18.7856 7.39483 17.2949 5.11708C19.3276 12.2034 21.1571 22.9595 16.9561 29.16ZM21.4281 9.73585C23.3253 8.02753 25.358 6.50903 27.052 5.37016C25.1548 6.00287 22.7832 6.95193 20.7505 8.21735C20.7505 8.34389 21.1571 9.03987 21.4281 9.73585Z" fill="black"/>
<path d="M50.259 32H25.031C19.7636 32 15.5127 28.2039 15.5127 23.5C15.5127 18.7961 19.7636 15 25.031 15H50.259C55.5264 15 59.7772 18.7961 59.7772 23.5C59.7772 28.2039 55.5264 32 50.259 32Z" fill="#6DCBBA"/>
<path d="M22.8689 21.6098C22.7442 21.6538 22.5205 21.7124 22.1979 21.7858C21.8752 21.8518 21.6222 21.8958 21.4389 21.9178L21.3179 21.1478C21.7139 21.0671 22.1245 20.9241 22.5499 20.7188C22.9825 20.5061 23.3345 20.2861 23.6059 20.0588H23.6169L24.4859 20.1798V26.2298L25.7399 26.3508V26.9998H21.5489V26.3508L22.8689 26.2408V21.6098Z" fill="black"/>
<path d="M29.458 27.1098C28.5193 27.1098 27.8006 26.7981 27.302 26.1748C26.8106 25.5441 26.565 24.6898 26.565 23.6118C26.565 22.8491 26.708 22.2038 26.994 21.6758C27.28 21.1404 27.6576 20.7408 28.127 20.4768C28.6036 20.2054 29.1316 20.0698 29.711 20.0698C30.657 20.0698 31.3683 20.3704 31.845 20.9718C32.3216 21.5658 32.56 22.4091 32.56 23.5018C32.56 24.2571 32.4206 24.9098 32.142 25.4598C31.8706 26.0024 31.5003 26.4131 31.031 26.6918C30.5616 26.9704 30.0373 27.1098 29.458 27.1098ZM29.568 26.4498C30.03 26.4498 30.3673 26.2151 30.58 25.7458C30.8 25.2691 30.91 24.5614 30.91 23.6228C30.91 22.6254 30.8073 21.8958 30.602 21.4338C30.404 20.9644 30.063 20.7298 29.579 20.7298C28.6696 20.7298 28.215 21.6501 28.215 23.4908C28.215 24.4734 28.3213 25.2141 28.534 25.7128C28.754 26.2041 29.0986 26.4498 29.568 26.4498Z" fill="black"/>
<path d="M36.6874 27.1098C35.7488 27.1098 35.0301 26.7981 34.5314 26.1748C34.0401 25.5441 33.7944 24.6898 33.7944 23.6118C33.7944 22.8491 33.9374 22.2038 34.2234 21.6758C34.5094 21.1404 34.8871 20.7408 35.3565 20.4768C35.8331 20.2054 36.3611 20.0698 36.9405 20.0698C37.8865 20.0698 38.5978 20.3704 39.0744 20.9718C39.5511 21.5658 39.7894 22.4091 39.7894 23.5018C39.7894 24.2571 39.6501 24.9098 39.3715 25.4598C39.1001 26.0024 38.7298 26.4131 38.2605 26.6918C37.7911 26.9704 37.2668 27.1098 36.6874 27.1098ZM36.7975 26.4498C37.2595 26.4498 37.5968 26.2151 37.8095 25.7458C38.0295 25.2691 38.1395 24.5614 38.1395 23.6228C38.1395 22.6254 38.0368 21.8958 37.8314 21.4338C37.6334 20.9644 37.2924 20.7298 36.8084 20.7298C35.8991 20.7298 35.4444 21.6501 35.4444 23.4908C35.4444 24.4734 35.5508 25.2141 35.7634 25.7128C35.9834 26.2041 36.3281 26.4498 36.7975 26.4498Z" fill="black"/>
<path d="M47.4809 18.7388H48.5039L44.9729 26.9998H43.9609L47.4809 18.7388ZM42.9929 23.5348C42.5603 23.5348 42.1899 23.4321 41.8819 23.2268C41.5739 23.0214 41.3393 22.7428 41.1779 22.3908C41.0166 22.0388 40.9359 21.6501 40.9359 21.2248C40.9359 20.7334 41.0349 20.3081 41.2329 19.9488C41.4309 19.5821 41.6986 19.3034 42.0359 19.1128C42.3806 18.9221 42.7619 18.8268 43.1799 18.8268C43.8913 18.8268 44.4119 19.0394 44.7419 19.4648C45.0793 19.8901 45.2479 20.4548 45.2479 21.1588C45.2479 21.6501 45.1453 22.0754 44.9399 22.4348C44.7419 22.7941 44.4706 23.0691 44.1259 23.2598C43.7813 23.4431 43.4036 23.5348 42.9929 23.5348ZM43.0809 22.8748C43.3889 22.8748 43.6126 22.7281 43.7519 22.4348C43.8986 22.1341 43.9719 21.7234 43.9719 21.2028C43.9719 20.7041 43.9023 20.2971 43.7629 19.9818C43.6309 19.6591 43.4146 19.4978 43.1139 19.4978C42.8133 19.4978 42.5896 19.6444 42.4429 19.9378C42.2963 20.2311 42.2229 20.6381 42.2229 21.1588C42.2229 21.6281 42.2926 22.0314 42.4319 22.3688C42.5713 22.7061 42.7876 22.8748 43.0809 22.8748ZM49.2959 26.8458C48.8706 26.8458 48.5003 26.7431 48.1849 26.5378C47.8769 26.3251 47.6423 26.0464 47.4809 25.7018C47.3196 25.3498 47.2389 24.9611 47.2389 24.5358C47.2389 24.0444 47.3379 23.6191 47.5359 23.2598C47.7339 22.8931 48.0053 22.6144 48.3499 22.4238C48.6946 22.2331 49.0759 22.1378 49.4939 22.1378C50.1979 22.1378 50.7149 22.3504 51.0449 22.7758C51.3823 23.2011 51.5509 23.7658 51.5509 24.4698C51.5509 24.9611 51.4483 25.3864 51.2429 25.7458C51.0449 26.1051 50.7736 26.3801 50.4289 26.5708C50.0843 26.7541 49.7066 26.8458 49.2959 26.8458ZM49.3839 26.1748C49.6919 26.1748 49.9156 26.0281 50.0549 25.7348C50.2016 25.4414 50.2749 25.0344 50.2749 24.5138C50.2749 24.0224 50.2053 23.6154 50.0659 23.2928C49.9339 22.9701 49.7213 22.8088 49.4279 22.8088C49.1199 22.8088 48.8926 22.9554 48.7459 23.2488C48.5993 23.5421 48.5259 23.9491 48.5259 24.4698C48.5259 24.9391 48.5956 25.3424 48.7349 25.6798C48.8743 26.0098 49.0906 26.1748 49.3839 26.1748Z" fill="black"/>
</svg>
