<svg width="97" height="101" viewBox="0 0 97 101" fill="none" xmlns="http://www.w3.org/2000/svg">
<g clip-path="url(#clip0_7163_7113)">
<path d="M62.1355 83.9494C59.101 92.8947 43.9774 96.1892 28.3473 91.319C12.6672 86.3547 2.45664 75.1663 5.4671 66.292C5.63568 65.795 5.87835 65.3212 6.09692 64.9183C10.1499 57.0753 24.4901 54.4002 39.3053 59.0165C54.1206 63.6329 64.0775 73.8787 62.5191 82.5775C62.3986 82.9324 62.3041 83.4525 62.1355 83.9494Z" fill="#F7AD1A"/>
<path d="M62.469 82.4836C61.3502 84.3329 59.1666 85.458 57.0367 87.1493C54.9067 88.8406 52.3286 89.9213 49.3656 88.998C47.884 88.5364 46.0617 88.5965 44.4893 89.1271C41.9835 89.9947 39.0982 89.5667 36.8222 88.308C34.8185 87.2127 32.3258 86.593 29.8627 86.6105C25.8717 86.5444 22.8809 85.22 20.3736 82.7118C18.1144 80.4379 15.4904 78.7567 12.8959 77.7128C9.06617 76.2055 7.37372 73.9512 6.90371 70.5078C6.64096 68.385 5.83925 66.6437 6.02279 64.8954C10.0758 57.0524 24.4159 54.3773 39.2312 58.9937C54.0706 63.539 64.0275 73.7849 62.469 82.4836Z" fill="#EE8034"/>
<path d="M63.6767 79.4059C62.8338 81.8907 60.3057 83.0654 57.8331 85.0424C55.7032 86.7337 53.1251 87.8144 50.162 86.8911C48.6805 86.4295 46.8582 86.4897 45.2858 87.0202C42.7059 87.8648 39.8946 87.4598 37.6187 86.2012C35.615 85.1058 33.1223 84.4861 30.6592 84.5036C26.6682 84.4375 23.6774 83.1131 21.1701 80.6049C18.9109 78.331 16.2869 76.6499 13.6683 75.677C9.76448 74.1466 8.09612 71.8213 7.6261 68.3779C7.31154 65.9249 6.30986 63.8073 7.00828 61.7485C9.60931 54.0811 24.3717 51.8515 40.0018 56.7217C55.6319 61.5919 66.2778 71.7385 63.6767 79.4059Z" fill="#F7ADBB"/>
<path d="M65.4648 74.8604C62.4303 83.8057 47.3307 87.0292 31.7006 82.159C16.0705 77.2888 5.85996 66.1004 8.87042 57.2261C9.15942 56.3742 9.59658 55.5684 10.1078 54.7857C14.783 47.7646 28.486 45.5189 42.5605 49.9044C56.7091 54.313 66.4142 63.8525 65.9373 72.2602C65.8946 73.1104 65.7538 74.0085 65.4648 74.8604Z" fill="#EE8034"/>
<path d="M65.8114 71.9072C61.0622 78.9052 47.3592 81.1508 33.2106 76.7422C19.1361 72.3567 9.43094 62.8173 9.88376 54.4805C14.6571 47.4115 28.3601 45.1659 42.4346 49.5514C56.5832 53.96 66.2883 63.4994 65.8114 71.9072Z" fill="#F7AD1A"/>
<path d="M42.7506 55.3802C42.8003 58.6141 36.5885 61.2315 28.9528 61.2857C21.3171 61.3399 15.041 58.8349 14.9673 55.672C14.9176 52.4381 21.1295 49.8207 28.7652 49.7664C36.4249 49.6412 42.6769 52.2173 42.7506 55.3802Z" fill="#FFC928"/>
<path d="M47.8013 65.1178C47.505 65.0255 47.3364 65.5225 47.6327 65.6148C48.0272 65.6592 48.1717 65.2332 47.8013 65.1178Z" fill="#EE8034"/>
<path d="M52.6817 62.3212C51.7187 62.0212 51.213 63.5121 52.176 63.8121C53.139 64.1122 53.6447 62.6213 52.6817 62.3212Z" fill="#EE8034"/>
<path d="M38.649 66.5051C37.686 66.205 37.2043 67.6249 38.1673 67.925C39.1303 68.225 39.6861 66.8282 38.649 66.5051Z" fill="#EE8034"/>
<path d="M25.4316 64.6631L25.3575 64.64C25.0612 64.5477 24.8926 65.0447 25.1889 65.137L25.263 65.1601C25.5593 65.2524 25.7279 64.7555 25.4316 64.6631Z" fill="#EE8034"/>
<path d="M38.7107 61.7358C38.7107 61.7358 38.6366 61.7127 38.7107 61.7358C38.4866 61.4305 37.9958 61.67 38.1458 61.9523C38.2699 62.0694 38.3199 62.1635 38.5421 62.2327C38.9125 62.3482 39.0811 61.8512 38.7107 61.7358Z" fill="#EE8034"/>
<path d="M45.5914 53.2826C45.2951 53.1903 45.1265 53.6873 45.4228 53.7796C45.7191 53.8719 45.8877 53.375 45.5914 53.2826Z" fill="#EE8034"/>
<path d="M28.5871 68.1581L28.3648 68.0888C27.4018 67.7888 26.9202 69.2086 27.8832 69.5087L28.1054 69.5779C29.1424 69.9011 29.6241 68.4812 28.5871 68.1581Z" fill="#EE8034"/>
<path d="M14.5003 55.8406C14.2021 55.5122 13.7095 55.5157 13.3669 55.8014C13.1705 55.8973 13.0242 56.0872 12.952 56.3001C12.8075 56.7261 13.0815 57.1255 13.4519 57.2409C13.8223 57.3563 14.2149 57.1647 14.4094 56.8328C14.802 56.6411 14.7484 56.0749 14.5003 55.8406Z" fill="#EE8034"/>
<path d="M45.9762 74.3615C45.0132 74.0615 44.5074 75.5523 45.4704 75.8524C46.5315 76.1046 47.0132 74.6847 45.9762 74.3615Z" fill="#EE8034"/>
</g>
<path d="M84.6102 17.2346C84.4101 16.9483 84.0801 16.7844 83.7562 16.6402C82.6113 16.1172 81.4241 15.6382 80.1616 15.4589C78.9058 15.2831 77.5608 15.4163 76.4857 16.0624C77.6607 13.9637 79.0653 11.993 80.6679 10.1753C80.5461 10.0704 80.4177 9.96207 80.2959 9.8572C78.814 10.8697 77.7138 12.3047 76.8043 13.8144C75.8948 15.3241 75.1488 16.9108 74.2326 18.417C75.021 15.3725 74.5911 12.0559 73.049 9.28341C72.6818 9.39772 72.3182 9.50565 71.9511 9.61996C73.1631 10.6328 73.5147 12.1722 73.7241 13.7035C73.9268 15.2314 74.0279 16.7558 73.6515 18.2543L73.2809 20.0618C73.6459 18.6896 74.724 17.9624 76.0769 17.329C77.6263 16.608 78.6936 16.4622 80.3008 16.4906C81.4197 16.5123 83.7746 17.3526 84.509 18.1574C84.8113 17.9597 84.8138 17.5145 84.6102 17.2346Z" fill="#E08CB8"/>
<path d="M73.2852 20.0554C73.258 20.1485 73.2374 20.2449 73.2235 20.3449L73.2852 20.0554Z" fill="#E08CB8"/>
<path d="M74.9614 16.7383L34.0126 48.2182C34.0126 48.2182 35.1668 52.5246 39.3321 56.2277C42.6359 59.1671 48.9579 62.5241 48.9579 62.5241C48.9579 62.5241 55.3307 65.7918 59.6997 66.8563C65.2055 68.1998 69.606 66.7922 69.606 66.7922L74.9614 16.7383Z" fill="#46A5AA"/>
<path d="M71.9267 28.2351C72.4192 28.6905 72.9729 29.1448 73.5687 29.4639L73.9056 26.3326C72.8373 25.5684 71.7266 24.8483 70.7574 23.9704C69.9656 23.2514 69.2797 22.4221 68.7219 21.5192L66.991 22.8483C68.4722 24.7705 70.1306 26.5784 71.9267 28.2351Z" fill="#E08CB8"/>
<path d="M70.981 50.2218C71.0917 50.2548 71.2128 50.2849 71.3375 50.3087L71.6798 47.1223C69.0789 45.0126 66.1245 43.2973 63.5876 41.1053C60.3996 38.3421 57.9344 34.8233 56.4557 30.9512L52.8894 33.6871C55.6874 36.7264 58.0073 40.1363 60.7775 43.1941C63.5575 46.2653 66.9216 49.0378 70.981 50.2218Z" fill="#E08CB8"/>
<path d="M70.6638 56.5712C70.5245 56.482 70.3816 56.3992 70.2423 56.3099C65.5905 53.4938 60.9125 50.6476 56.8328 47.1131C53.5 44.2247 50.5551 40.8359 48.6147 36.9709L44.4759 40.1522C49.8845 49.3574 58.6264 56.7386 68.8522 60.7023C69.2705 60.8628 69.7233 61.0081 70.1851 61.092L70.6638 56.5712Z" fill="#E08CB8"/>
<path d="M64.4474 26.1258C64.2716 25.8273 64.1066 25.5097 63.9453 25.1857L61.1746 27.3116C63.4993 30.7736 66.1119 34.0634 68.9736 37.1276C69.9927 38.2216 71.0765 39.3081 72.4479 39.9493L72.8578 36.112C69.496 33.2746 66.6328 29.8788 64.4474 26.1258Z" fill="#E08CB8"/>
<path d="M44.6587 56.974C46.1618 58.9489 47.6709 60.9436 49.3801 62.7532C50.9168 63.5138 55.996 65.9576 59.6587 66.852C60.56 67.0743 61.4303 67.2143 62.2515 67.3038C62.0841 66.9602 61.8308 66.6461 61.5733 66.3546C59.3901 63.8594 56.586 61.9249 54.207 59.592C49.6948 55.1621 46.8154 49.3933 42.3388 44.9159C41.756 44.3307 41.1387 43.7605 40.6085 43.1283L36.5639 46.2347C37.044 46.94 37.5622 47.6238 38.0707 48.2943C40.2665 51.1929 42.4659 54.0852 44.6587 56.974Z" fill="#E08CB8"/>
<path opacity="0.34" d="M45.4314 44.6857C44.5017 45.4407 43.5326 46.2496 43.1097 47.3435C42.6869 48.4374 43.0208 49.9015 44.1475 50.3654C44.9267 50.6811 45.8552 50.4298 46.5275 49.9456C47.1998 49.4613 47.6861 48.7726 48.1616 48.1029C51.6262 43.2966 55.823 38.9797 60.573 35.3154C61.3861 34.6897 63.9861 31.9373 61.308 32.0611C59.7481 32.1317 57.3908 34.9281 56.2338 35.8704C52.6362 38.8133 49.032 41.7527 45.4314 44.6857Z" fill="white"/>
<path opacity="0.34" d="M63.2928 30.0873C63.1955 30.2432 63.0977 30.4154 63.1149 30.598C63.1395 30.9498 63.5627 31.1624 63.9228 31.1519C64.6531 31.1278 65.2103 30.5422 65.6811 30.0024C66.3077 29.2794 69.7797 26.056 66.9705 26.4256C65.3007 26.629 64.0295 28.8512 63.2928 30.0873Z" fill="white"/>
<path d="M83.001 22.9843C83.4508 21.1438 82.7549 19.0857 81.2557 17.8486C79.7566 16.6116 77.5336 16.2535 75.6966 16.9485C76.5968 15.6985 77.7852 14.6403 79.1494 13.8805C79.8835 13.4699 80.7303 13.1346 81.574 13.2607C81.5246 12.9372 81.4649 12.6167 81.4155 12.2933C78.2484 12.3355 75.2156 14.3907 74.1188 17.2331C74.2576 15.8338 73.4154 14.4435 72.209 13.6486C70.9997 12.8439 69.4793 12.5714 68.0113 12.6321C67.736 12.6456 67.4468 12.6683 67.2273 12.8266C66.8023 13.1339 66.8551 13.7402 66.9422 14.2404C68.3694 13.5218 70.2303 13.6661 71.527 14.5908C72.8237 15.5154 73.4931 17.1794 73.1905 18.6999L73.7048 19.6793C74.5105 18.4131 76.1726 17.7674 77.7026 17.9622C79.2392 18.1606 80.5989 19.1264 81.4119 20.3857C81.6816 20.8076 81.9055 21.2799 81.9115 21.7709C81.9139 22.2682 81.6543 22.7859 81.182 22.9941C81.8035 23.0704 82.4075 23.0714 83.001 22.9843Z" fill="#46A5AA"/>
<defs>
<clipPath id="clip0_7163_7113">
<rect width="59.5885" height="44.0063" fill="white" transform="matrix(0.954726 0.297485 -0.321251 0.946994 14.1372 40.7341)"/>
</clipPath>
</defs>
</svg>
